<svg width="371" height="67" viewBox="0 0 371 67" fill="none" xmlns="http://www.w3.org/2000/svg">
<g filter="url(#filter0_d_664_1581)">
<g clip-path="url(#clip0_664_1581)">
<path d="M350.949 2.00017H216.722C216.232 2.00017 215.749 2.00017 215.261 2.00282C214.853 2.00546 214.447 2.01315 214.035 2.01962C213.139 2.03008 212.245 2.10823 211.361 2.25342C210.479 2.40176 209.623 2.68143 208.825 3.08297C208.027 3.48791 207.299 4.01408 206.665 4.6424C206.028 5.26895 205.498 5.99317 205.093 6.78719C204.688 7.57963 204.406 8.4288 204.259 9.30538C204.111 10.1809 204.031 11.0664 204.02 11.9541C204.008 12.3598 204.007 12.7668 204 13.1725V43.7539C204.007 44.1647 204.008 44.5626 204.02 44.9736C204.031 45.8613 204.111 46.7468 204.259 47.6222C204.406 48.4993 204.687 49.349 205.093 50.1417C205.497 50.9331 206.028 51.6544 206.665 52.2775C207.296 52.9086 208.026 53.4351 208.825 53.837C209.623 54.2396 210.478 54.5209 211.361 54.6716C212.245 54.8156 213.139 54.8938 214.035 54.9055C214.447 54.9145 214.853 54.9196 215.261 54.9196C215.749 54.9223 216.233 54.9223 216.722 54.9223H350.949C351.428 54.9223 351.916 54.9223 352.395 54.9196C352.802 54.9196 353.219 54.9145 353.625 54.9055C354.519 54.8944 355.411 54.8162 356.294 54.6716C357.179 54.5199 358.037 54.2386 358.84 53.837C359.638 53.4349 360.367 52.9084 360.997 52.2775C361.633 51.652 362.165 50.9312 362.574 50.1417C362.977 49.3484 363.255 48.4988 363.4 47.6222C363.549 46.7467 363.632 45.8613 363.648 44.9736C363.653 44.5626 363.653 44.1647 363.653 43.7539C363.663 43.2732 363.663 42.7952 363.663 42.3067V14.617C363.663 14.1325 363.663 13.6518 363.653 13.1725C363.653 12.7668 363.653 12.3598 363.648 11.9541C363.632 11.0663 363.549 10.1809 363.4 9.30533C363.255 8.42926 362.977 7.58015 362.574 6.78714C361.75 5.1956 360.444 3.90011 358.84 3.08285C358.037 2.68229 357.179 2.4027 356.294 2.2533C355.412 2.10748 354.519 2.02929 353.625 2.01944C353.219 2.01298 352.802 2.00523 352.395 2.00265C351.916 2 351.428 2 350.949 2V2.00017Z" fill="#A6A6A6"/>
<path d="M215.268 53.7645C214.861 53.7645 214.464 53.7593 214.061 53.7503C213.225 53.7395 212.392 53.6674 211.567 53.5345C210.798 53.4032 210.053 53.1589 209.357 52.8096C208.667 52.4633 208.037 52.0092 207.493 51.4646C206.94 50.9265 206.48 50.3024 206.131 49.617C205.778 48.9271 205.534 48.1877 205.406 47.4244C205.269 46.6043 205.195 45.775 205.184 44.9437C205.176 44.6647 205.165 43.7356 205.165 43.7356V13.1724C205.165 13.1724 205.177 12.2576 205.184 11.9888C205.195 11.1589 205.268 10.3308 205.405 9.51198C205.533 8.74662 205.777 8.00505 206.13 7.31293C206.478 6.62801 206.936 6.00342 207.485 5.46337C208.033 4.9182 208.665 4.46172 209.356 4.11059C210.051 3.76247 210.794 3.51988 211.562 3.39093C212.389 3.25673 213.226 3.18417 214.064 3.17387L215.268 3.15771H352.389L353.607 3.17452C354.438 3.18431 355.267 3.25622 356.086 3.38963C356.862 3.5202 357.613 3.76449 358.316 4.11447C359.701 4.8221 360.827 5.94163 361.538 7.31616C361.886 8.0035 362.126 8.73902 362.252 9.49777C362.391 10.3234 362.468 11.1579 362.484 11.9946C362.488 12.3693 362.488 12.7718 362.488 13.1724C362.499 13.6685 362.498 14.1407 362.498 14.6168V42.3066C362.498 42.7872 362.499 43.2563 362.488 43.7291C362.488 44.1594 362.488 44.5535 362.483 44.9592C362.467 45.781 362.391 46.6006 362.255 47.4114C362.13 48.1802 361.887 48.9254 361.534 49.6209C361.183 50.2989 360.725 50.9176 360.179 51.4543C359.634 52.0018 359.004 52.4586 358.312 52.8071C357.611 53.159 356.861 53.4043 356.086 53.5345C355.262 53.6681 354.428 53.7402 353.592 53.7503C353.202 53.7593 352.792 53.7645 352.395 53.7645L350.949 53.7671L215.268 53.7645Z" fill="black"/>
<path d="M237.048 28.8587C237.063 27.7544 237.358 26.6716 237.908 25.7111C238.458 24.7507 239.244 23.9437 240.192 23.3653C239.59 22.5117 238.795 21.8092 237.87 21.3137C236.946 20.8181 235.918 20.5431 234.867 20.5105C232.627 20.2773 230.455 21.84 229.313 21.84C228.149 21.84 226.391 20.5337 224.498 20.5723C223.274 20.6115 222.08 20.9646 221.035 21.5971C219.989 22.2296 219.126 23.12 218.53 24.1814C215.95 28.6116 217.874 35.1224 220.346 38.7034C221.583 40.4569 223.028 42.4156 224.92 42.3461C226.77 42.27 227.462 41.1759 229.695 41.1759C231.909 41.1759 232.557 42.3461 234.487 42.302C236.473 42.27 237.724 40.5407 238.917 38.7705C239.806 37.5211 240.49 36.1402 240.943 34.679C239.789 34.1951 238.805 33.3852 238.112 32.3502C237.42 31.3151 237.05 30.1008 237.048 28.8587Z" fill="white"/>
<path d="M233.403 18.1564C234.486 16.8674 235.02 15.2107 234.89 13.5381C233.236 13.7104 231.708 14.4944 230.611 15.7338C230.074 16.3394 229.663 17.0438 229.401 17.8069C229.14 18.57 229.032 19.3768 229.085 20.1811C229.912 20.1896 230.731 20.0117 231.479 19.661C232.227 19.3103 232.885 18.7958 233.403 18.1564Z" fill="white"/>
<path d="M260.442 37.9074H254.127L252.61 42.3481H249.935L255.917 25.9185H258.696L264.678 42.3481H261.958L260.442 37.9074ZM254.781 35.8582H259.787L257.319 28.6512H257.25L254.781 35.8582Z" fill="white"/>
<path d="M277.598 36.3592C277.598 40.0815 275.588 42.4731 272.556 42.4731C271.788 42.513 271.024 42.3375 270.352 41.9669C269.68 41.5962 269.127 41.0454 268.755 40.3774H268.698V46.3105H266.219V30.3692H268.619V32.3616H268.664C269.052 31.6968 269.615 31.1488 270.292 30.7759C270.97 30.403 271.736 30.2191 272.511 30.2439C275.577 30.2439 277.598 32.6471 277.598 36.3592ZM275.049 36.3592C275.049 33.934 273.785 32.3396 271.857 32.3396C269.962 32.3396 268.688 33.9676 268.688 36.3592C268.688 38.7727 269.962 40.3891 271.857 40.3891C273.785 40.3891 275.049 38.8063 275.049 36.3592Z" fill="white"/>
<path d="M290.893 36.3592C290.893 40.0815 288.884 42.4731 285.852 42.4731C285.084 42.5129 284.32 42.3375 283.648 41.9669C282.976 41.5962 282.422 41.0454 282.051 40.3774H281.994V46.3105H279.514V30.3692H281.914V32.3616H281.96C282.348 31.6968 282.911 31.1488 283.588 30.7759C284.265 30.403 285.032 30.2191 285.806 30.2439C288.872 30.2439 290.893 32.6471 290.893 36.3592ZM288.345 36.3592C288.345 33.934 287.081 32.3396 285.152 32.3396C283.258 32.3396 281.983 33.9676 281.983 36.3592C281.983 38.7727 283.258 40.389 285.152 40.389C287.081 40.389 288.345 38.8063 288.345 36.3592H288.345Z" fill="white"/>
<path d="M299.681 37.7704C299.864 39.3997 301.461 40.4695 303.642 40.4695C305.732 40.4695 307.235 39.3997 307.235 37.9306C307.235 36.6553 306.328 35.8918 304.181 35.3685L302.034 34.8555C298.991 34.1268 297.579 32.7159 297.579 30.4264C297.579 27.5916 300.07 25.6445 303.608 25.6445C307.109 25.6445 309.509 27.5916 309.59 30.4264H307.087C306.937 28.7868 305.57 27.7971 303.573 27.7971C301.575 27.7971 300.208 28.7984 300.208 30.2558C300.208 31.4174 301.081 32.1009 303.217 32.6241L305.042 33.0686C308.442 33.8658 309.854 35.2199 309.854 37.623C309.854 40.6968 307.385 42.6219 303.458 42.6219C299.783 42.6219 297.303 40.742 297.142 37.7703L299.681 37.7704Z" fill="white"/>
<path d="M315.206 27.5356V30.3704H317.503V32.3175H315.206V38.9211C315.206 39.947 315.666 40.4251 316.676 40.4251C316.948 40.4204 317.221 40.4014 317.491 40.3682V42.3037C317.037 42.3878 316.576 42.4259 316.114 42.4174C313.668 42.4174 312.714 41.5065 312.714 39.1834V32.3175H310.958V30.3704H312.714V27.5356H315.206Z" fill="white"/>
<path d="M318.833 36.3603C318.833 32.5915 321.072 30.2231 324.563 30.2231C328.065 30.2231 330.293 32.5914 330.293 36.3603C330.293 40.1396 328.077 42.4976 324.563 42.4976C321.05 42.4976 318.833 40.1396 318.833 36.3603ZM327.767 36.3603C327.767 33.775 326.572 32.2491 324.563 32.2491C322.553 32.2491 321.36 33.7866 321.36 36.3603C321.36 38.9561 322.553 40.4703 324.563 40.4703C326.572 40.4703 327.767 38.9561 327.767 36.3603H327.767Z" fill="white"/>
<path d="M332.338 30.3691H334.702V32.408H334.76C334.92 31.7712 335.296 31.2084 335.825 30.8143C336.354 30.4202 337.004 30.2187 337.665 30.2438C337.951 30.2428 338.236 30.2736 338.515 30.3355V32.6354C338.154 32.5261 337.778 32.4759 337.401 32.4868C337.041 32.4723 336.682 32.5353 336.348 32.6714C336.015 32.8075 335.715 33.0136 335.47 33.2754C335.224 33.5372 335.039 33.8486 334.926 34.1882C334.814 34.5278 334.776 34.8875 334.817 35.2427V42.3477H332.338L332.338 30.3691Z" fill="white"/>
<path d="M349.947 38.8307C349.614 41.0052 347.478 42.4976 344.746 42.4976C341.232 42.4976 339.051 40.1628 339.051 36.4172C339.051 32.6599 341.243 30.2231 344.642 30.2231C347.984 30.2231 350.086 32.4997 350.086 36.1317V36.9741H341.554V37.1227C341.514 37.5635 341.57 38.0076 341.717 38.4255C341.864 38.8433 342.099 39.2254 342.406 39.5463C342.714 39.8672 343.086 40.1196 343.5 40.2867C343.913 40.4538 344.357 40.5318 344.803 40.5156C345.389 40.57 345.977 40.4354 346.48 40.1319C346.982 39.8283 347.373 39.372 347.593 38.8307L349.947 38.8307ZM341.565 35.2557H347.605C347.627 34.8593 347.566 34.4626 347.427 34.0906C347.287 33.7185 347.071 33.3791 346.793 33.0936C346.515 32.8081 346.18 32.5828 345.81 32.4317C345.44 32.2806 345.042 32.2069 344.642 32.2155C344.238 32.2131 343.838 32.29 343.464 32.4418C343.09 32.5936 342.751 32.8173 342.465 33.1C342.179 33.3826 341.952 33.7186 341.798 34.0886C341.643 34.4586 341.564 34.8553 341.565 35.2557V35.2557Z" fill="white"/>
</g>
<rect x="204.5" y="2.5" width="158.663" height="51.9221" stroke="#2BBC1B"/>
<g clip-path="url(#clip1_664_1581)">
<path d="M179.502 54.7905H13.7622C10.1159 54.7905 7.13263 51.8285 7.13263 48.2082V8.71406C7.13263 5.09377 10.1159 2.13171 13.7622 2.13171H179.502C183.149 2.13171 186.132 5.09377 186.132 8.71406V48.2082C186.132 51.8285 183.149 54.7905 179.502 54.7905Z" fill="black"/>
<path d="M179.502 2.13171H13.7622C10.1159 2.13171 7.13263 5.09377 7.13263 8.71406V48.2082C7.13263 51.8285 10.1159 54.7905 13.7622 54.7905H179.502C183.149 54.7905 186.132 51.8285 186.132 48.2082V8.71406C186.132 5.09377 183.149 2.13171 179.502 2.13171ZM179.502 3.18488C182.573 3.18488 185.071 5.66564 185.071 8.71406V48.2082C185.071 51.2571 182.573 53.7379 179.502 53.7379H13.7622C10.6919 53.7379 8.19337 51.2571 8.19337 48.2082V8.71406C8.19337 5.66564 10.6919 3.18488 13.7622 3.18488H179.502Z" fill="#A6A6A6"/>
<path d="M148.921 41.626H151.395V25.1685H148.921V41.626ZM171.206 31.0969L168.37 38.232H168.285L165.341 31.0969H162.676L167.09 41.0695L164.574 46.6167H167.155L173.957 31.0969H171.206ZM157.175 39.7567C156.364 39.7567 155.234 39.3546 155.234 38.359C155.234 37.0888 156.642 36.6018 157.857 36.6018C158.945 36.6018 159.456 36.8347 160.117 37.1526C159.925 38.6768 158.603 39.7567 157.175 39.7567ZM157.473 30.7368C155.682 30.7368 153.827 31.5205 153.059 33.2567L155.255 34.1669C155.725 33.2567 156.598 32.9599 157.516 32.9599C158.795 32.9599 160.096 33.7226 160.117 35.0776V35.2468C159.669 34.9927 158.711 34.6117 157.537 34.6117C155.17 34.6117 152.76 35.9029 152.76 38.3168C152.76 40.5188 154.701 41.9376 156.875 41.9376C158.539 41.9376 159.456 41.1966 160.032 40.3286H160.117V41.5987H162.505V35.2889C162.505 32.3675 160.31 30.7368 157.473 30.7368ZM142.183 33.1003H138.664V27.4591H142.183C144.033 27.4591 145.083 28.9796 145.083 30.2796C145.083 31.555 144.033 33.1003 142.183 33.1003ZM142.119 25.1685H136.191V41.626H138.664V35.3908H142.119C144.861 35.3908 147.557 33.4196 147.557 30.2796C147.557 27.1397 144.861 25.1685 142.119 25.1685ZM109.792 39.7598C108.083 39.7598 106.652 38.3389 106.652 36.3874C106.652 34.4153 108.083 32.9728 109.792 32.9728C111.479 32.9728 112.804 34.4153 112.804 36.3874C112.804 38.3389 111.479 39.7598 109.792 39.7598ZM112.633 32.0184H112.547C111.992 31.3611 110.924 30.7672 109.578 30.7672C106.758 30.7672 104.174 33.2273 104.174 36.3874C104.174 39.5264 106.758 41.9654 109.578 41.9654C110.924 41.9654 111.992 41.3714 112.547 40.6931H112.633V41.499C112.633 43.6414 111.479 44.7866 109.621 44.7866C108.105 44.7866 107.165 43.7046 106.78 42.7928L104.623 43.6835C105.242 45.1681 106.887 46.9922 109.621 46.9922C112.526 46.9922 114.983 45.2951 114.983 41.1596V31.1066H112.633V32.0184ZM116.691 41.626H119.169V25.168H116.691V41.626ZM122.822 36.1966C122.758 34.0331 124.51 32.9306 125.77 32.9306C126.753 32.9306 127.586 33.4181 127.863 34.1186L122.822 36.1966ZM130.512 34.3304C130.043 33.0787 128.611 30.7672 125.684 30.7672C122.779 30.7672 120.366 33.0365 120.366 36.3663C120.366 39.5053 122.758 41.9654 125.962 41.9654C128.547 41.9654 130.043 40.3959 130.662 39.4841L128.739 38.2113C128.099 39.1447 127.223 39.7598 125.962 39.7598C124.702 39.7598 123.805 39.187 123.228 38.0632L130.768 34.9665L130.512 34.3304ZM70.4371 32.4852V34.8605H76.1618C75.9908 36.1966 75.5423 37.1721 74.8586 37.8509C74.0258 38.6783 72.7227 39.5901 70.4371 39.5901C66.9124 39.5901 64.157 36.7694 64.157 33.27C64.157 29.7705 66.9124 26.9495 70.4371 26.9495C72.3383 26.9495 73.7264 27.6919 74.7519 28.6464L76.4394 26.971C75.0083 25.6134 73.107 24.5741 70.4371 24.5741C65.6093 24.5741 61.5508 28.4767 61.5508 33.27C61.5508 38.0632 65.6093 41.9654 70.4371 41.9654C73.0433 41.9654 75.0083 41.1174 76.5461 39.5264C78.1269 37.9569 78.6184 35.7512 78.6184 33.9699C78.6184 33.4181 78.5759 32.9095 78.4899 32.4852H70.4371ZM85.1268 39.7598C83.4176 39.7598 81.9436 38.36 81.9436 36.3663C81.9436 34.3514 83.4176 32.9728 85.1268 32.9728C86.8354 32.9728 88.3094 34.3514 88.3094 36.3663C88.3094 38.36 86.8354 39.7598 85.1268 39.7598ZM85.1268 30.7672C82.0077 30.7672 79.4657 33.1213 79.4657 36.3663C79.4657 39.5901 82.0077 41.9654 85.1268 41.9654C88.2453 41.9654 90.7873 39.5901 90.7873 36.3663C90.7873 33.1213 88.2453 30.7672 85.1268 30.7672ZM97.4754 39.7598C95.7668 39.7598 94.2927 38.36 94.2927 36.3663C94.2927 34.3514 95.7668 32.9728 97.4754 32.9728C99.1841 32.9728 100.658 34.3514 100.658 36.3663C100.658 38.36 99.1841 39.7598 97.4754 39.7598ZM97.4754 30.7672C94.3564 30.7672 91.8149 33.1213 91.8149 36.3663C91.8149 39.5901 94.3564 41.9654 97.4754 41.9654C100.594 41.9654 103.136 39.5901 103.136 36.3663C103.136 33.1213 100.594 30.7672 97.4754 30.7672Z" fill="white"/>
<path d="M21.0678 44.7715L20.9693 44.6779C20.5834 44.2725 20.3557 43.6431 20.3557 42.8281V43.0199V13.9049C20.3557 13.9022 20.3557 13.9003 20.3557 13.8982C20.3557 13.9007 20.3557 13.9028 20.3557 13.9054V14.0977C20.3557 13.2152 20.6212 12.5504 21.0662 12.1517L37.4941 28.4621L21.0678 44.7715ZM20.3557 13.8966C20.3557 13.824 20.3576 13.7536 20.3614 13.6842C20.3576 13.7531 20.3557 13.824 20.3557 13.8966ZM20.3614 13.6811C20.3614 13.6801 20.3614 13.6791 20.3617 13.678C20.3614 13.6791 20.3614 13.6801 20.3614 13.6811ZM20.3617 13.6719C20.3617 13.6713 20.3617 13.6708 20.3617 13.6703C20.3617 13.6708 20.3617 13.6713 20.3617 13.6719Z" fill="url(#paint0_linear_664_1581)"/>
<path d="M42.9692 34.0938L43.0941 34.0233L49.5817 30.3634C50.2002 30.0143 50.6125 29.591 50.8181 29.1432C50.613 29.591 50.2006 30.0148 49.5817 30.3639L43.0941 34.0238L42.9692 34.0938ZM42.9708 33.9009L37.4941 28.4623L42.9703 23.0246L49.5817 26.7539C50.4213 27.2276 50.8926 27.838 50.9714 28.4618C50.9714 28.4623 50.9714 28.4633 50.9714 28.4643C50.8926 29.0866 50.4213 29.6975 49.5817 30.1711L42.9708 33.9009Z" fill="url(#paint1_linear_664_1581)"/>
<path d="M22.2388 45.3926C21.7799 45.3926 21.3795 45.2445 21.0672 44.9647L21.0678 44.9642C21.38 45.2439 21.781 45.3926 22.2399 45.3926C22.2797 45.3926 22.3201 45.3915 22.3611 45.3895C22.3196 45.3915 22.2786 45.3926 22.2388 45.3926ZM22.2393 45.1997C21.7804 45.2002 21.38 45.0516 21.0678 44.7719V44.7715L37.4941 28.4621L42.9708 33.9007L23.7248 44.758C23.1923 45.0578 22.6878 45.1997 22.2393 45.1997ZM21.0631 44.9612C21.0341 44.935 21.0056 44.9072 20.9776 44.8784L21.0631 44.9612Z" fill="url(#paint2_linear_664_1581)"/>
<path d="M37.494 28.4619L21.0662 12.1515C21.3784 11.8723 21.7783 11.7242 22.2367 11.7242C22.6863 11.7242 23.1912 11.8666 23.7248 12.1669L42.9702 23.0242L37.494 28.4619ZM43.0941 22.9014L23.7248 11.9747C23.1912 11.6743 22.6863 11.5318 22.2367 11.5318C22.2346 11.5318 22.2331 11.5318 22.231 11.5318C22.2336 11.5318 22.2356 11.5318 22.2388 11.5318C22.6874 11.5318 23.1917 11.6738 23.7248 11.9742L43.0941 22.9014Z" fill="url(#paint3_linear_664_1581)"/>
<path d="M22.3611 45.3896C22.778 45.366 23.2395 45.2235 23.7248 44.9505L42.9692 34.0937L23.7248 44.9505C23.2399 45.224 22.778 45.366 22.3611 45.3896ZM21.0673 44.9648L21.0632 44.9613C21.0646 44.9623 21.0662 44.9638 21.0673 44.9648ZM20.9777 44.8785L20.9693 44.8703V44.8698C20.9725 44.8728 20.975 44.8758 20.9777 44.8785Z" fill="black"/>
<path d="M42.9692 34.0938L43.0941 34.0233L42.9692 34.0938Z" fill="url(#paint4_linear_664_1581)"/>
<path d="M22.2399 45.3926C21.781 45.3926 21.3801 45.2439 21.0678 44.9642L21.0673 44.9647C21.0662 44.9637 21.0646 44.9622 21.0632 44.9612L20.9777 44.8784C20.975 44.8757 20.9725 44.8727 20.9693 44.8697L21.0678 44.7719C21.3801 45.0516 21.7805 45.2002 22.2394 45.1997C22.6878 45.1997 23.1923 45.0578 23.7248 44.758L42.9708 33.9007L43.0941 34.0231L42.9692 34.0936L23.7248 44.9504C23.2395 45.2234 22.778 45.3659 22.3611 45.3895C22.3201 45.3915 22.2797 45.3926 22.2399 45.3926Z" fill="url(#paint5_linear_664_1581)"/>
<path d="M20.9693 44.8701C20.5834 44.4648 20.3557 43.8354 20.3557 43.0203V43.0198C20.3557 43.8354 20.5834 44.4642 20.9693 44.8696V44.8701Z" fill="black"/>
<path d="M20.9693 44.8696C20.5834 44.4643 20.3557 43.8354 20.3557 43.0199V42.828C20.3557 43.6431 20.5834 44.2725 20.9693 44.6778L21.0678 44.7714L20.9693 44.8696Z" fill="url(#paint6_linear_664_1581)"/>
<path d="M20.9693 44.8696L21.0678 44.7714V44.7718L20.9693 44.8696Z" fill="url(#paint7_linear_664_1581)"/>
<path d="M50.8181 29.1431C50.9201 28.9208 50.9714 28.6926 50.9714 28.4642C50.9714 28.4638 50.9714 28.4632 50.9714 28.4632C50.9714 28.692 50.9201 28.9203 50.8181 29.1431Z" fill="black"/>
<path d="M43.0941 34.0229L42.9708 33.9005L49.5817 30.1707C50.4212 29.6972 50.8926 29.0862 50.9714 28.4639C50.9714 28.6923 50.9201 28.9206 50.8181 29.1428C50.6124 29.5907 50.2002 30.0139 49.5817 30.363L43.0941 34.0229Z" fill="url(#paint8_linear_664_1581)"/>
<path d="M50.9714 28.4619V28.4614C50.9709 27.7727 50.5073 27.0842 49.5817 26.5617L43.0941 22.9018H43.0936L43.0941 22.9014L49.5817 26.5612C50.5084 27.0837 50.9725 27.7733 50.9714 28.4619Z" fill="#404040"/>
<path d="M50.9714 28.4614C50.8926 27.8377 50.4213 27.2272 49.5817 26.7536L42.9703 23.0243L43.0936 22.9018H43.0941L49.5817 26.5618C50.5073 27.0843 50.9709 27.7728 50.9714 28.4614Z" fill="url(#paint9_linear_664_1581)"/>
<path d="M20.3557 13.8979C20.3557 13.8974 20.3557 13.8969 20.3557 13.8964C20.3557 13.8969 20.3557 13.8974 20.3557 13.8979ZM20.3614 13.684C20.3614 13.683 20.3614 13.6819 20.3614 13.6809C20.3614 13.6819 20.3614 13.683 20.3614 13.684ZM20.3617 13.6778C20.3617 13.6757 20.3617 13.6738 20.3617 13.6716C20.3617 13.6738 20.3617 13.6757 20.3617 13.6778ZM20.3617 13.6701C20.4385 12.3177 21.1792 11.5365 22.2269 11.5319C21.7727 11.5345 21.377 11.6826 21.0673 11.9597V11.9592L21.0636 11.9629C21.0309 11.9921 20.9999 12.023 20.9693 12.0549C20.6212 12.4205 20.4017 12.9681 20.3617 13.6701Z" fill="#404040"/>
<path d="M20.3557 14.0977V13.9053C20.3557 13.9027 20.3557 13.9006 20.3557 13.8981C20.3557 13.8976 20.3557 13.897 20.3557 13.8965C20.3557 13.824 20.3576 13.753 20.3614 13.6842C20.3614 13.6831 20.3614 13.682 20.3614 13.681C20.3614 13.6801 20.3614 13.679 20.3617 13.678C20.3617 13.6759 20.3617 13.6739 20.3617 13.6718C20.3617 13.6713 20.3617 13.6707 20.3617 13.6702C20.4017 12.9683 20.6212 12.4206 20.9693 12.055L21.0662 12.1516C20.6212 12.5503 20.3557 13.2151 20.3557 14.0977ZM21.0636 11.963L21.0673 11.9593C21.0662 11.9609 21.0646 11.9619 21.0636 11.963Z" fill="url(#paint10_linear_664_1581)"/>
<path d="M42.9703 23.0244L23.7248 12.1671C23.1913 11.8668 22.6864 11.7244 22.2367 11.7244C21.7784 11.7244 21.3785 11.8725 21.0662 12.1517L20.9693 12.0551C20.9999 12.0232 21.031 11.9923 21.0636 11.963C21.0646 11.962 21.0662 11.9609 21.0673 11.9599C21.377 11.6828 21.7727 11.5347 22.2269 11.532C22.228 11.532 22.2295 11.532 22.231 11.532C22.2332 11.532 22.2346 11.532 22.2367 11.532C22.6864 11.532 23.1913 11.6745 23.7248 11.9749L43.0941 22.9016L43.0936 22.902L42.9703 23.0244Z" fill="url(#paint11_linear_664_1581)"/>
</g>
<rect x="7.5" y="2.5" width="178.397" height="51.9221" stroke="#2BBC1B"/>
</g>
<defs>
<filter id="filter0_d_664_1581" x="0" y="0" width="370.663" height="66.9219" filterUnits="userSpaceOnUse" color-interpolation-filters="sRGB">
<feFlood flood-opacity="0" result="BackgroundImageFix"/>
<feColorMatrix in="SourceAlpha" type="matrix" values="0 0 0 0 0 0 0 0 0 0 0 0 0 0 0 0 0 0 127 0" result="hardAlpha"/>
<feOffset dy="5"/>
<feGaussianBlur stdDeviation="3.5"/>
<feColorMatrix type="matrix" values="0 0 0 0 0 0 0 0 0 0 0 0 0 0 0 0 0 0 0.1 0"/>
<feBlend mode="normal" in2="BackgroundImageFix" result="effect1_dropShadow_664_1581"/>
<feBlend mode="normal" in="SourceGraphic" in2="effect1_dropShadow_664_1581" result="shape"/>
</filter>
<linearGradient id="paint0_linear_664_1581" x1="36.0374" y1="13.5977" x2="13.9443" y2="35.8494" gradientUnits="userSpaceOnUse">
<stop stop-color="#00A0FF"/>
<stop offset="0.00657445" stop-color="#00A1FF"/>
<stop offset="0.2601" stop-color="#00BEFF"/>
<stop offset="0.5122" stop-color="#00D2FF"/>
<stop offset="0.7604" stop-color="#00DFFF"/>
<stop offset="1" stop-color="#00E3FF"/>
</linearGradient>
<linearGradient id="paint1_linear_664_1581" x1="51.9943" y1="28.4631" x2="19.9111" y2="28.4631" gradientUnits="userSpaceOnUse">
<stop stop-color="#FFE000"/>
<stop offset="0.4087" stop-color="#2BBC1B"/>
<stop offset="0.7754" stop-color="#2BBC1B" stop-opacity="0.56"/>
<stop offset="1" stop-color="#2BBC1B"/>
</linearGradient>
<linearGradient id="paint2_linear_664_1581" x1="40.0512" y1="31.4838" x2="10.0914" y2="61.6587" gradientUnits="userSpaceOnUse">
<stop stop-color="#FF3A44"/>
<stop offset="1" stop-color="#C31162"/>
</linearGradient>
<linearGradient id="paint3_linear_664_1581" x1="16.8082" y1="2.36341" x2="30.1865" y2="15.8377" gradientUnits="userSpaceOnUse">
<stop stop-color="#32A071"/>
<stop offset="0.0685" stop-color="#2DA771"/>
<stop offset="0.4762" stop-color="#15CF74"/>
<stop offset="0.8009" stop-color="#06E775"/>
<stop offset="1" stop-color="#00F076"/>
</linearGradient>
<linearGradient id="paint4_linear_664_1581" x1="51.9943" y1="28.4634" x2="19.9112" y2="28.4634" gradientUnits="userSpaceOnUse">
<stop stop-color="#CCB300"/>
<stop offset="0.4087" stop-color="#CC9700"/>
<stop offset="0.7754" stop-color="#CC8400"/>
<stop offset="1" stop-color="#CC7D00"/>
</linearGradient>
<linearGradient id="paint5_linear_664_1581" x1="40.0513" y1="31.4838" x2="10.0914" y2="61.6587" gradientUnits="userSpaceOnUse">
<stop stop-color="#CC2E36"/>
<stop offset="1" stop-color="#9C0E4E"/>
</linearGradient>
<linearGradient id="paint6_linear_664_1581" x1="36.0375" y1="13.5977" x2="13.9444" y2="35.8494" gradientUnits="userSpaceOnUse">
<stop stop-color="#008DE0"/>
<stop offset="0.00657445" stop-color="#008DE0"/>
<stop offset="0.2601" stop-color="#00A7E0"/>
<stop offset="0.5122" stop-color="#00B8E0"/>
<stop offset="0.7604" stop-color="#00C4E0"/>
<stop offset="1" stop-color="#00C7E0"/>
</linearGradient>
<linearGradient id="paint7_linear_664_1581" x1="40.0519" y1="31.4842" x2="10.0931" y2="61.6601" gradientUnits="userSpaceOnUse">
<stop stop-color="#E0333C"/>
<stop offset="1" stop-color="#AB0F56"/>
</linearGradient>
<linearGradient id="paint8_linear_664_1581" x1="51.9943" y1="28.4627" x2="19.911" y2="28.4627" gradientUnits="userSpaceOnUse">
<stop stop-color="#E0C500"/>
<stop offset="0.4087" stop-color="#E0A600"/>
<stop offset="0.7754" stop-color="#E09100"/>
<stop offset="1" stop-color="#E08900"/>
</linearGradient>
<linearGradient id="paint9_linear_664_1581" x1="51.9943" y1="28.4627" x2="19.9111" y2="28.4627" gradientUnits="userSpaceOnUse">
<stop stop-color="#FFE840"/>
<stop offset="0.4087" stop-color="#FFCE40"/>
<stop offset="0.7754" stop-color="#FFBC40"/>
<stop offset="1" stop-color="#FFB540"/>
</linearGradient>
<linearGradient id="paint10_linear_664_1581" x1="36.0375" y1="13.5977" x2="13.9444" y2="35.8494" gradientUnits="userSpaceOnUse">
<stop stop-color="#40B8FF"/>
<stop offset="0.00657445" stop-color="#40B9FF"/>
<stop offset="0.2601" stop-color="#40CEFF"/>
<stop offset="0.5122" stop-color="#40DDFF"/>
<stop offset="0.7604" stop-color="#40E7FF"/>
<stop offset="1" stop-color="#40EAFF"/>
</linearGradient>
<linearGradient id="paint11_linear_664_1581" x1="16.8083" y1="2.36359" x2="30.1866" y2="15.8379" gradientUnits="userSpaceOnUse">
<stop stop-color="#65B895"/>
<stop offset="0.0685" stop-color="#62BD95"/>
<stop offset="0.4762" stop-color="#50DB97"/>
<stop offset="0.8009" stop-color="#44ED98"/>
<stop offset="1" stop-color="#40F498"/>
</linearGradient>
<clipPath id="clip0_664_1581">
<rect x="204" y="2" width="159.663" height="52.9221" fill="white"/>
</clipPath>
<clipPath id="clip1_664_1581">
<rect x="7" y="2" width="179.397" height="52.9221" fill="white"/>
</clipPath>
</defs>
</svg>
