<svg width="1728" height="1614" viewBox="0 0 1728 1614" fill="none" xmlns="http://www.w3.org/2000/svg">
<mask id="mask0_609_2364" style="mask-type:alpha" maskUnits="userSpaceOnUse" x="-98" y="-1343" width="1920" height="2958">
<g style="mix-blend-mode:color-dodge">
<path d="M-97 1613.9C542.344 1607.64 1181.84 1604.86 1821.18 1613.9" stroke="#0F0D0D" stroke-miterlimit="10"/>
<path d="M-97 1555.01C88.092 1526.43 276.023 1516.68 461.371 1539.24C537.075 1548.46 612.984 1553 688.714 1543.32C771.298 1532.75 849.918 1490.57 931.402 1464.82C1076.31 1418.99 1223.25 1526.66 1367.55 1544.62C1519.54 1563.58 1668.8 1514.32 1821.18 1559.21" stroke="#0F0D0D" stroke-miterlimit="10"/>
<path d="M-97 1489.21C95.2532 1440.13 294.514 1431.16 487.228 1475.22C564.492 1492.88 642.396 1502.21 719.788 1483.49C811.12 1461.45 890.379 1380.3 978.257 1330.75C1125.04 1248 1269.95 1448.93 1414.04 1481.6C1477.29 1495.95 1539.9 1464.59 1603 1455.19C1677.6 1444.03 1748.78 1461.81 1821.18 1504.51" stroke="#0F0D0D" stroke-miterlimit="10"/>
<path d="M-97 1417.87C101.161 1351.54 304.898 1359.69 503.213 1421.17C581.244 1445.33 659.327 1458.62 737.538 1430.62C778.229 1416.03 817.923 1391.52 856.747 1359.92C909.535 1316.98 958.206 1238.08 1010.56 1198.62C1157.49 1087.88 1296.93 1370.44 1436.27 1420.94C1500.21 1444.09 1558.55 1396.07 1621.54 1379.47C1691.69 1360.99 1755.58 1392.65 1821.21 1449.88" stroke="#0F0D0D" stroke-miterlimit="10"/>
<path d="M-97 1342.03C96.9923 1263.53 295.179 1288.1 488.481 1367.54C572.37 1402.04 656.386 1424.78 740.786 1385.2C847.949 1334.94 926.978 1186.16 1025.09 1091.06C1184.19 936.849 1310.9 1310.96 1459.31 1367.84C1517.91 1390.28 1566.22 1332.99 1622.31 1308.01C1694.3 1275.94 1756.5 1323.13 1821.18 1395.24" stroke="#0F0D0D" stroke-miterlimit="10"/>
<path d="M-97 1262.94C97.1458 1170.92 287.583 1225.38 478.864 1325.02C563.009 1368.84 647.383 1392.82 732.269 1344.33C776.336 1319.17 817.974 1278.12 858.179 1229.92C918.359 1157.81 971.608 1037.32 1031.99 972.878C1194.3 799.644 1310.1 1236.48 1454.48 1309.01C1520.18 1342.03 1563.89 1269.5 1624.48 1233.88C1696.5 1191.59 1759.29 1259.81 1821.18 1340.55" stroke="#0F0D0D" stroke-miterlimit="10"/>
<path d="M-97 1181.85C93.3094 1077.48 267.864 1164.6 452.266 1280.54C537.893 1334.35 623.47 1366.89 710.658 1311.08C756.797 1281.55 799.738 1232.88 840.967 1177.42C905.571 1090.53 961.301 952.029 1026.34 873.238C1197.16 666.337 1298.47 1173.64 1446.09 1254.44C1515.48 1292.41 1556.12 1205.35 1617.91 1160.41C1692.69 1106.01 1759.16 1196.38 1821.16 1285.86" stroke="#0F0D0D" stroke-miterlimit="10"/>
<path d="M-97 1099.87C84.7415 984.219 239.091 1098.45 411.319 1229.22C496.742 1294.07 581.935 1342.62 670.964 1289.46C806.414 1208.6 894.701 962.542 1008.54 796.75C1193.4 527.596 1275.78 1126.98 1437.06 1203.29C1506.88 1236.36 1546.37 1133.53 1608.09 1083.86C1686.25 1020.96 1758.4 1134.24 1821.18 1231.05" stroke="#0F0D0D" stroke-miterlimit="10"/>
<path d="M-97 1018.3C79.3451 886.763 214.743 1034.6 376.689 1181.14C464.133 1260.22 552.574 1324.37 645.746 1258.98C783.881 1162.06 873.908 898.044 988.104 714.415C1182.25 402.262 1245.98 1069.27 1412.74 1147.71C1483.71 1181.08 1527.52 1066.97 1588.29 1011.27C1674.12 932.597 1752.92 1066.49 1821.18 1176.53" stroke="#0F0D0D" stroke-miterlimit="10"/>
<path d="M-97 938.208C-17.9964 868.69 59.1146 852.683 140.829 908.794C216.278 960.593 281.061 1065.2 352.264 1139.2C436.357 1226.62 522.753 1303.28 614.774 1233.65C760.94 1123.02 848.921 822.62 968.206 623.338C1161.35 300.613 1217.54 988.53 1376.11 1081.32C1456.4 1128.28 1502.92 992.133 1571.18 929.88C1663.43 845.714 1749.62 1002.82 1821.18 1121.84" stroke="#0F0D0D" stroke-miterlimit="10"/>
<path d="M-97 860.893C-25.8993 786.532 44.9456 763.379 120.036 821.498C194.001 878.731 254.079 999.221 322.213 1082.62C401.472 1179.66 483.033 1277.06 574.237 1214.92C727.154 1110.85 823.14 773.479 941.812 555.179C1144.17 182.899 1177.75 931.534 1343.53 1017.71C1428.6 1061.95 1481.56 904.069 1554.61 842.524C1652.87 759.776 1747.12 940.57 1821.16 1067.09" stroke="#0F0D0D" stroke-miterlimit="10"/>
<path d="M-97 787.477C67.3244 583.706 166.021 824.746 299.859 1019.54C375.871 1130.17 457.713 1258.16 550.86 1186.93C701.706 1071.57 800.94 724.751 915.29 494.107C989.101 345.266 1059.77 310.713 1122.99 499.009C1177.83 662.261 1213.04 897.395 1310.61 944.705C1395.58 985.872 1455.58 824.274 1528.47 758.418C1635.73 661.435 1741.92 873.474 1821.18 1012.45" stroke="#0F0D0D" stroke-miterlimit="10"/>
<path d="M-97 719.199C62.1581 488.2 161.341 728.059 286.867 945.768C353.824 1061.89 429.631 1222.72 520.093 1168.2C575.157 1135.01 623.982 1040.68 666.028 957.404C746.848 797.4 813.933 608.631 890.66 439.591C964.216 277.519 1036.72 213.73 1099.79 427.541C1146.8 586.896 1182.86 833.074 1277.37 867.863C1367.21 900.939 1432.97 722.92 1511.77 661.375C1625.43 572.543 1740.01 811.28 1821.18 957.64" stroke="#0F0D0D" stroke-miterlimit="10"/>
<path d="M-97 657.3C-34.9531 554.233 33.5132 489.558 109.115 552.343C176.431 608.277 228.759 738.218 280.499 846.482C338.811 968.508 412.47 1185.15 501.985 1142.57C552.369 1118.59 596.692 1029.52 634.34 953.683C717.435 786.236 790.275 592.271 864.982 405.688C934.906 230.977 1012.4 105.289 1077.62 348.455C1121.53 512.121 1155.63 770.998 1255.22 780.094C1343.61 788.185 1410.03 625.169 1489.7 565.042C1611.9 472.843 1735.86 743.828 1821.21 903.006" stroke="#0F0D0D" stroke-miterlimit="10"/>
<path d="M-97 600.481C-33.3163 485.897 37.6309 409.822 118.067 475.856C185.945 531.553 242.161 658.54 292.34 772.711C344.515 891.488 414.541 1124.79 499.964 1084.98C547.766 1062.71 589.812 973.469 625.056 901.057C705.645 735.383 777.615 546.496 850.429 363.221C917.106 195.42 995.419 42.4449 1061.56 284.489C1104.83 442.839 1137.7 695.573 1235.42 698.704C1323.04 701.48 1396.11 554.588 1477.93 504.266C1605.27 425.888 1729.73 682.816 1821.18 846.954" stroke="#0F0D0D" stroke-miterlimit="10"/>
<path d="M-97 537.164C-26.7433 409.527 48.2193 340.895 134.103 429.491C205.127 502.789 267.327 641.471 322.289 764.265C371.6 874.478 432.7 1060.47 510.451 1002.53C557.894 967.149 599.147 872.647 634.544 796.691C705.491 644.483 771.426 479.636 838.358 318.155C902.144 164.176 979.536 14.3896 1048.1 229.087C1096.88 381.826 1127.93 626.114 1225.29 637.277C1312.02 647.2 1395.88 515.074 1479.49 479.636C1605.94 426.006 1723.54 627.296 1821.21 782.397" stroke="#0F0D0D" stroke-miterlimit="10"/>
<path d="M-97 466.819C-21.4491 333.689 55.534 275.157 143.796 380.29C211.418 460.794 273.823 590.44 329.451 708.745C381.293 819.017 444.951 1009.03 523.29 924.919C564.185 881.034 597.843 797.459 629.966 726.759C697.537 577.918 761.451 420.1 827.437 267.597C895.699 109.837 973.04 -12.4844 1043.86 197.251C1092.61 341.663 1127.72 569 1220.15 578.45C1305.19 587.191 1389.67 493.103 1472.66 461.799C1600.77 413.484 1714.51 564.334 1821.21 709.69" stroke="#0F0D0D" stroke-miterlimit="10"/>
<path d="M-97 390.745C-9.86329 245.566 73.258 212.726 166.047 347.805C232.723 444.847 294.361 576.324 354.029 694.865C403.851 793.856 459.887 949.253 529.607 859.24C566.947 811.043 598.022 725.106 627.767 655.587C691.092 507.514 752.756 355.838 817.923 212.017C885.443 62.9992 962.733 -44.5561 1034.6 143.74C1088.26 284.312 1125.42 508.518 1217.62 528.836C1298.88 546.733 1387.42 473.375 1467.34 444.788C1595.07 399.132 1707.45 503.38 1821.16 630.662" stroke="#0F0D0D" stroke-miterlimit="10"/>
<path d="M-97 310.359C-2.59977 163.703 84.2044 147.992 178.809 301.44C250.191 417.205 314.335 563.506 382.214 690.376C428.889 777.554 480.527 897.099 538.865 796.927C577.434 730.716 608.917 630.958 640.938 549.686C695.082 412.362 750.582 276.869 810.148 152.008C883.141 -1.02612 962.298 -73.3203 1035.8 111.136C1089.61 246.156 1130.84 456.896 1219.26 479.754C1302.94 501.371 1393.43 450.635 1476.32 424.352C1598.21 385.724 1706.71 448.627 1821.18 546.496" stroke="#0F0D0D" stroke-miterlimit="10"/>
<path d="M-97 226.901C10.6229 71.5044 102.107 88.0424 200.907 270.195C275.869 408.405 339.758 569.236 417.892 699.649C471.499 789.072 510.144 839.571 559.07 714.946C642.217 503.143 709.558 261.749 806.976 79.1237C878.486 -54.8923 957.157 -104.86 1028.41 51.1274C1088.62 182.899 1129.13 385.193 1216.04 432.68C1296.27 476.447 1396.96 433.271 1477.62 407.873C1596.68 370.368 1704.12 392.399 1821.21 459.023" stroke="#0F0D0D" stroke-miterlimit="10"/>
<path d="M-97 141.79C23.5131 -20.5764 121.647 32.1676 223.26 240.013C296.049 388.913 356.587 561.321 439.196 683.642C499.837 773.479 531.755 789.367 573.239 646.314C638.969 419.686 705.133 188.037 800.889 20.8864C878.307 -114.311 956.748 -144.67 1032.4 11.2C1095.39 141.022 1140.23 349.872 1229.31 395.824C1308.31 436.578 1400.51 417.205 1480.16 392.162C1595.78 355.779 1704.41 339.359 1821.21 369.422" stroke="#0F0D0D" stroke-miterlimit="10"/>
<path d="M-97 56.3841C34.3572 -111.062 137.121 -28.5498 241.24 200.559C314.924 362.689 375.666 560.731 466.383 675.669C533.725 761.016 557.357 716.659 589.48 570.358C640.58 337.705 705.21 102.572 799.866 -48.9859C879.995 -177.332 961.045 -181.289 1036.31 -33.8064C1101.97 94.8938 1149.79 298.31 1237.75 355.365C1426.4 477.746 1631.69 294.825 1821.21 279.646" stroke="#0F0D0D" stroke-miterlimit="10"/>
<path d="M-97 -28.0181C-31.6539 -108.404 29.7792 -156.128 102.9 -97.5953C163.387 -49.163 212.927 52.486 257.301 156.025C330.499 326.956 393.083 556.951 490.604 658.541C563.75 734.733 581.065 632.08 605.746 488.85C645.977 255.193 706.719 15.8073 801.631 -120.985C1008.49 -419.198 1083.14 184.198 1247.72 315.025C1439.93 467.823 1633.25 275.039 1821.21 190.991" stroke="#0F0D0D" stroke-miterlimit="10"/>
<path d="M-97 -110.058C-28.8405 -193.338 33.9736 -239.762 108.425 -176.505C170.881 -123.465 221.367 -15.0831 266.611 94.7167C337.763 267.36 411.344 566.224 517.484 634.974C591.782 683.111 603.495 522.576 622.319 393.344C655.261 167.129 712.039 -82.2977 807.027 -201.961C1004.22 -450.384 1103.53 108.183 1252.4 266.061C1447.73 473.198 1636.86 260.804 1821.18 104.994" stroke="#0F0D0D" stroke-miterlimit="10"/>
<path d="M-97 -188.318C-28.1756 -274.787 33.8201 -321.743 109.576 -260.494C172.39 -209.699 223.72 -96.3553 268.376 14.0942C340.832 193.353 418.506 533.856 531.167 584.651C607.741 619.204 618.483 442.544 635.209 309.886C663.931 82.313 715.645 -169.595 814.905 -275.437C1012.38 -486 1118.87 50.2412 1264.53 223.653C1340.36 313.902 1438.54 360.15 1523.02 328.728C1630.11 288.918 1728.04 142.381 1821.21 23.4853" stroke="#0F0D0D" stroke-miterlimit="10"/>
<path d="M-97 -261.557C-23.6998 -359.425 47.1451 -415.832 128.297 -331.252C189.193 -267.758 237.506 -151.048 281.164 -37.7635C346.586 131.986 429.043 489.618 539.095 516.433C621.935 536.633 632.396 327.724 650.146 186.679C677.588 -31.3256 727.001 -265.041 826.465 -349.148C1022.45 -514.941 1135.78 -17.7999 1277.19 176.461C1348.65 274.625 1442.05 341.84 1525.63 317.801C1637.6 285.552 1734.51 98.4378 1821.16 -52.4704" stroke="#0F0D0D" stroke-miterlimit="10"/>
<path d="M-97 -328.358C-27.7919 -430.184 40.342 -501.061 122.108 -424.809C187.633 -363.678 239.808 -233.915 284.821 -112.657C349.17 60.6958 430.091 416.615 544.415 422.876C625.925 427.305 641.015 215.384 660.248 73.8671C689.993 -144.787 737.026 -356.886 841.35 -418.726C1041.12 -537.208 1152.04 -82.6523 1294.99 135.412C1364.96 242.199 1458.29 330.263 1543.53 301.854C1655.02 264.643 1744.58 50.6549 1821.18 -120.985" stroke="#0F0D0D" stroke-miterlimit="10"/>
<path d="M-97 -387.363C-33.4697 -493.737 32.5158 -582.864 113.31 -520.375C176.277 -471.706 225.869 -352.515 268.248 -239.467C337.661 -54.3608 407.482 274.92 526.973 295.947C617.818 311.894 641.424 108.006 667.563 -53.2976C703.215 -273.37 752.909 -459.716 862.092 -493.796C1055.65 -554.218 1167.19 -169.89 1301.66 72.036C1369.08 193.294 1460.36 309.414 1548.57 289.568C1665.58 263.226 1751.69 11.968 1821.18 -180.639" stroke="#0F0D0D" stroke-miterlimit="10"/>
<path d="M-97 -433.905C-33.7767 -535.79 31.416 -619.661 110.599 -560.125C172.262 -513.76 221.342 -399.825 263.209 -290.203C330.653 -113.72 402.035 225.071 518.098 234.344C607.843 241.49 638.56 57.9197 670.734 -103.443C711.988 -310.226 767.82 -499.525 873.703 -532.542C1060.48 -590.779 1177.16 -231.73 1309.72 -2.0892C1374.76 110.546 1466.5 225.13 1550.03 221.349C1666.81 216.034 1753.31 -40.4807 1821.18 -227.713" stroke="#0F0D0D" stroke-miterlimit="10"/>
<path d="M-97 -465.741C-34.7741 -564.082 29.4723 -645.649 107.095 -591.429C167.07 -549.552 215.434 -442.883 256.636 -338.458C323.006 -170.185 394.081 165.062 506.384 166.656C594.441 167.897 631.936 6.06171 670.376 -151.58C717.333 -344.128 778.971 -528.88 881.095 -561.247C1061.12 -618.244 1182.74 -296.227 1315.37 -81.8844C1379.77 22.1862 1470.51 138.306 1550.21 154.726C1666.4 178.646 1754.3 -80.4078 1821.16 -260.907" stroke="#0F0D0D" stroke-miterlimit="10"/>
<path d="M-97 -485.468C-37.3061 -579.675 26.5055 -661.124 101.059 -617.417C164.615 -580.207 215.101 -469.226 258.376 -361.788C324.156 -198.477 390.116 104.875 500.016 93.5942C583.162 85.089 625.542 -60.6806 668.969 -204.147C722.295 -380.393 786.669 -545.654 884.317 -577.667C1061.63 -635.845 1185.86 -357.477 1323.81 -158.904C1387.55 -67.1187 1468.42 41.7361 1541.85 85.6206C1660.87 156.734 1751.52 -100.844 1821.18 -282.761" stroke="#0F0D0D" stroke-miterlimit="10"/>
<path d="M-97 -495.627C-38.943 -588.416 23.5131 -671.637 96.8389 -637.203C157.888 -608.498 207.505 -509.743 250.038 -410.575C316.74 -255.119 378.838 24.0761 485.31 13.1493C566.078 4.88033 614.646 -117.854 664.059 -250.099C723.267 -408.508 791.605 -559.003 885.494 -590.543C1055.32 -647.598 1185.45 -425.046 1325.01 -247.972C1394.27 -160.085 1467.11 -52.6479 1539.82 18.465C1656.89 132.99 1748.91 -114.842 1821.16 -295.637" stroke="#0F0D0D" stroke-miterlimit="10"/>
<path d="M-97 -498.757C25.15 -698.748 130.804 -697.744 241.726 -460.602C309.834 -315.01 367.712 -65.1104 470.45 -73.6156C548.584 -80.1126 602.907 -179.576 657.972 -296.345C722.857 -433.905 794.342 -566.976 884.496 -597.926C1046.31 -653.505 1183.32 -492.556 1324.14 -339.876C1401.66 -255.828 1464.38 -150.399 1536.58 -48.1591C1650.59 113.263 1743.66 -117.205 1821.21 -301.779" stroke="#0F0D0D" stroke-miterlimit="10"/>
</g>
</mask>
<g mask="url(#mask0_609_2364)">
<rect x="6.5" y="0.5" width="1727" height="164.703" fill="white" stroke="white"/>
</g>
</svg>
