<svg width="1728" height="1331" viewBox="0 0 1728 1331" fill="none" xmlns="http://www.w3.org/2000/svg">
<g opacity="0.13">
<mask id="mask0_600_2135" style="mask-type:alpha" maskUnits="userSpaceOnUse" x="198" y="0" width="1332" height="1331">
<rect width="1330.5" height="1330.5" transform="translate(198.75)" fill="url(#paint0_radial_600_2135)"/>
</mask>
<g mask="url(#mask0_600_2135)">
<g clip-path="url(#clip0_600_2135)">
<g clip-path="url(#clip1_600_2135)">
<line x1="199.212" x2="199.212" y2="1330.5" stroke="#252931" stroke-opacity="0.99" stroke-width="0.923958"/>
<line x1="273.129" x2="273.129" y2="1330.5" stroke="#252931" stroke-opacity="0.99" stroke-width="0.923958"/>
<line x1="347.045" x2="347.045" y2="1330.5" stroke="#252931" stroke-opacity="0.99" stroke-width="0.923958"/>
<line x1="420.962" x2="420.962" y2="1330.5" stroke="#252931" stroke-opacity="0.99" stroke-width="0.923958"/>
<line x1="494.879" x2="494.879" y2="1330.5" stroke="#252931" stroke-opacity="0.99" stroke-width="0.923958"/>
<line x1="568.795" x2="568.795" y2="1330.5" stroke="#252931" stroke-opacity="0.99" stroke-width="0.923958"/>
<line x1="642.712" x2="642.712" y2="1330.5" stroke="#252931" stroke-opacity="0.99" stroke-width="0.923958"/>
<line x1="716.629" x2="716.629" y2="1330.5" stroke="#252931" stroke-opacity="0.99" stroke-width="0.923958"/>
<line x1="790.545" x2="790.545" y2="1330.5" stroke="#252931" stroke-opacity="0.99" stroke-width="0.923958"/>
<line x1="864.462" x2="864.462" y2="1330.5" stroke="#252931" stroke-opacity="0.99" stroke-width="0.923958"/>
<line x1="938.379" x2="938.379" y2="1330.5" stroke="#252931" stroke-opacity="0.99" stroke-width="0.923958"/>
<line x1="1012.3" x2="1012.3" y2="1330.5" stroke="#252931" stroke-opacity="0.99" stroke-width="0.923958"/>
<line x1="1086.21" x2="1086.21" y2="1330.5" stroke="#252931" stroke-opacity="0.99" stroke-width="0.923958"/>
<line x1="1160.13" x2="1160.13" y2="1330.5" stroke="#252931" stroke-opacity="0.99" stroke-width="0.923958"/>
<line x1="1234.05" x2="1234.05" y2="1330.5" stroke="#252931" stroke-opacity="0.99" stroke-width="0.923958"/>
<line x1="1307.96" x2="1307.96" y2="1330.5" stroke="#252931" stroke-opacity="0.99" stroke-width="0.923958"/>
<line x1="1381.88" x2="1381.88" y2="1330.5" stroke="#252931" stroke-opacity="0.99" stroke-width="0.923958"/>
<line x1="1455.8" x2="1455.8" y2="1330.5" stroke="#252931" stroke-opacity="0.99" stroke-width="0.923958"/>
</g>
<g clip-path="url(#clip2_600_2135)">
<line x1="-23" y1="73.4547" x2="1751" y2="73.4547" stroke="#252931" stroke-opacity="0.99" stroke-width="0.923958"/>
<line x1="-23" y1="147.371" x2="1751" y2="147.371" stroke="#252931" stroke-opacity="0.99" stroke-width="0.923958"/>
<line x1="-23" y1="221.288" x2="1751" y2="221.288" stroke="#252931" stroke-opacity="0.99" stroke-width="0.923958"/>
<line x1="-23" y1="295.205" x2="1751" y2="295.205" stroke="#252931" stroke-opacity="0.99" stroke-width="0.923958"/>
<line x1="-23" y1="369.121" x2="1751" y2="369.121" stroke="#252931" stroke-opacity="0.99" stroke-width="0.923958"/>
<line x1="-23" y1="443.038" x2="1751" y2="443.038" stroke="#252931" stroke-opacity="0.99" stroke-width="0.923958"/>
<line x1="-23" y1="516.955" x2="1751" y2="516.955" stroke="#252931" stroke-opacity="0.99" stroke-width="0.923958"/>
<line x1="-23" y1="590.871" x2="1751" y2="590.871" stroke="#252931" stroke-opacity="0.99" stroke-width="0.923958"/>
<line x1="-23" y1="664.788" x2="1751" y2="664.788" stroke="#252931" stroke-opacity="0.99" stroke-width="0.923958"/>
<line x1="-23" y1="738.705" x2="1751" y2="738.705" stroke="#252931" stroke-opacity="0.99" stroke-width="0.923958"/>
<line x1="-23" y1="812.621" x2="1751" y2="812.621" stroke="#252931" stroke-opacity="0.99" stroke-width="0.923958"/>
<line x1="-23" y1="886.538" x2="1751" y2="886.538" stroke="#252931" stroke-opacity="0.99" stroke-width="0.923958"/>
<line x1="-23" y1="960.455" x2="1751" y2="960.455" stroke="#252931" stroke-opacity="0.99" stroke-width="0.923958"/>
<line x1="-23" y1="1034.37" x2="1751" y2="1034.37" stroke="#252931" stroke-opacity="0.99" stroke-width="0.923958"/>
<line x1="-23" y1="1108.29" x2="1751" y2="1108.29" stroke="#252931" stroke-opacity="0.99" stroke-width="0.923958"/>
<line x1="-23" y1="1182.2" x2="1751" y2="1182.2" stroke="#252931" stroke-opacity="0.99" stroke-width="0.923958"/>
<line x1="-23" y1="1256.12" x2="1751" y2="1256.12" stroke="#252931" stroke-opacity="0.99" stroke-width="0.923958"/>
</g>
</g>
</g>
</g>
<defs>
<radialGradient id="paint0_radial_600_2135" cx="0" cy="0" r="1" gradientUnits="userSpaceOnUse" gradientTransform="translate(665.25 -0.000158608) rotate(90) scale(1330.5 694.436)">
<stop/>
<stop offset="0.953125" stop-opacity="0"/>
</radialGradient>
<clipPath id="clip0_600_2135">
<rect width="1774" height="1330.5" fill="white" transform="translate(-23)"/>
</clipPath>
<clipPath id="clip1_600_2135">
<rect width="1774" height="1330.5" fill="white" transform="translate(-23)"/>
</clipPath>
<clipPath id="clip2_600_2135">
<rect width="1774" height="1330.5" fill="white" transform="translate(-23)"/>
</clipPath>
</defs>
</svg>
