<svg width="1171" height="944" viewBox="0 0 1171 944" fill="none" xmlns="http://www.w3.org/2000/svg">
<path d="M36.5819 756V188.426H435.657V312.583H190.669V410.135H411.269V534.292H190.669V756H36.5819ZM688.543 330.32V373.276H485.403V330.32H688.543ZM548.867 228.334H598.474V644.869C598.474 662.605 601.523 676.554 607.62 686.716C613.717 696.693 621.661 703.806 631.453 708.056C641.246 712.12 651.684 714.153 662.77 714.153C669.236 714.153 674.779 713.783 679.398 713.044C684.017 712.12 688.081 711.196 691.592 710.273L702.123 754.891C697.319 756.739 691.407 758.402 684.386 759.88C677.366 761.543 668.682 762.374 658.336 762.374C640.229 762.374 622.77 758.402 605.957 750.457C589.329 742.513 575.657 730.688 564.941 714.984C554.225 699.28 548.867 679.788 548.867 656.508V228.334Z" fill="black"/>
<circle cx="975.517" cy="552.793" r="195.103" fill="black"/>
</svg>
