<svg width="1027" height="1047" viewBox="0 0 1027 1047" fill="none" xmlns="http://www.w3.org/2000/svg">
<path d="M40.5395 838V209.024H482.788V346.612H211.297V454.718H455.762V592.306H211.297V838H40.5395ZM763.033 366.268V413.871H537.916V366.268H763.033ZM608.246 253.249H663.22V714.846C663.22 734.501 666.598 749.96 673.354 761.221C680.111 772.277 688.915 780.16 699.767 784.869C710.618 789.373 722.186 791.625 734.471 791.625C741.637 791.625 747.779 791.216 752.898 790.397C758.016 789.373 762.521 788.349 766.411 787.326L778.081 836.772C772.758 838.819 766.206 840.662 758.426 842.3C750.646 844.142 741.023 845.064 729.557 845.064C709.492 845.064 690.144 840.662 671.512 831.858C653.085 823.054 637.934 809.95 626.058 792.547C614.183 775.143 608.246 753.543 608.246 727.745V253.249Z" fill="white"/>
<circle cx="945.921" cy="756.737" r="81.0789" fill="white"/>
</svg>
